<svg id="my-svg" width="100%" xmlns="http://www.w3.org/2000/svg" xmlns:xlink="http://www.w3.org/1999/xlink" class="classDiagram" style="max-width: 192.812px; background-color: white;" viewBox="0 0 192.8125 426" role="graphics-document document" aria-roledescription="class"><style>#my-svg{font-family:"trebuchet ms",verdana,arial,sans-serif;font-size:16px;fill:#333;}@keyframes edge-animation-frame{from{stroke-dashoffset:0;}}@keyframes dash{to{stroke-dashoffset:0;}}#my-svg .edge-animation-slow{stroke-dasharray:9,5!important;stroke-dashoffset:900;animation:dash 50s linear infinite;stroke-linecap:round;}#my-svg .edge-animation-fast{stroke-dasharray:9,5!important;stroke-dashoffset:900;animation:dash 20s linear infinite;stroke-linecap:round;}#my-svg .error-icon{fill:#552222;}#my-svg .error-text{fill:#552222;stroke:#552222;}#my-svg .edge-thickness-normal{stroke-width:1px;}#my-svg .edge-thickness-thick{stroke-width:3.5px;}#my-svg .edge-pattern-solid{stroke-dasharray:0;}#my-svg .edge-thickness-invisible{stroke-width:0;fill:none;}#my-svg .edge-pattern-dashed{stroke-dasharray:3;}#my-svg .edge-pattern-dotted{stroke-dasharray:2;}#my-svg .marker{fill:#333333;stroke:#333333;}#my-svg .marker.cross{stroke:#333333;}#my-svg svg{font-family:"trebuchet ms",verdana,arial,sans-serif;font-size:16px;}#my-svg p{margin:0;}#my-svg g.classGroup text{fill:#9370DB;stroke:none;font-family:"trebuchet ms",verdana,arial,sans-serif;font-size:10px;}#my-svg g.classGroup text .title{font-weight:bolder;}#my-svg .cluster-label text{fill:#333;}#my-svg .cluster-label span{color:#333;}#my-svg .cluster-label span p{background-color:transparent;}#my-svg .cluster rect{fill:#ffffde;stroke:#aaaa33;stroke-width:1px;}#my-svg .cluster text{fill:#333;}#my-svg .cluster span{color:#333;}#my-svg .nodeLabel,#my-svg .edgeLabel{color:#131300;}#my-svg .edgeLabel .label rect{fill:#ECECFF;}#my-svg .label text{fill:#131300;}#my-svg .labelBkg{background:#ECECFF;}#my-svg .edgeLabel .label span{background:#ECECFF;}#my-svg .classTitle{font-weight:bolder;}#my-svg .node rect,#my-svg .node circle,#my-svg .node ellipse,#my-svg .node polygon,#my-svg .node path{fill:#ECECFF;stroke:#9370DB;stroke-width:1px;}#my-svg .divider{stroke:#9370DB;stroke-width:1;}#my-svg g.clickable{cursor:pointer;}#my-svg g.classGroup rect{fill:#ECECFF;stroke:#9370DB;}#my-svg g.classGroup line{stroke:#9370DB;stroke-width:1;}#my-svg .classLabel .box{stroke:none;stroke-width:0;fill:#ECECFF;opacity:0.5;}#my-svg .classLabel .label{fill:#9370DB;font-size:10px;}#my-svg .relation{stroke:#333333;stroke-width:1;fill:none;}#my-svg .dashed-line{stroke-dasharray:3;}#my-svg .dotted-line{stroke-dasharray:1 2;}#my-svg #compositionStart,#my-svg .composition{fill:#333333!important;stroke:#333333!important;stroke-width:1;}#my-svg #compositionEnd,#my-svg .composition{fill:#333333!important;stroke:#333333!important;stroke-width:1;}#my-svg #dependencyStart,#my-svg .dependency{fill:#333333!important;stroke:#333333!important;stroke-width:1;}#my-svg #dependencyStart,#my-svg .dependency{fill:#333333!important;stroke:#333333!important;stroke-width:1;}#my-svg #extensionStart,#my-svg .extension{fill:transparent!important;stroke:#333333!important;stroke-width:1;}#my-svg #extensionEnd,#my-svg .extension{fill:transparent!important;stroke:#333333!important;stroke-width:1;}#my-svg #aggregationStart,#my-svg .aggregation{fill:transparent!important;stroke:#333333!important;stroke-width:1;}#my-svg #aggregationEnd,#my-svg .aggregation{fill:transparent!important;stroke:#333333!important;stroke-width:1;}#my-svg #lollipopStart,#my-svg .lollipop{fill:#ECECFF!important;stroke:#333333!important;stroke-width:1;}#my-svg #lollipopEnd,#my-svg .lollipop{fill:#ECECFF!important;stroke:#333333!important;stroke-width:1;}#my-svg .edgeTerminals{font-size:11px;line-height:initial;}#my-svg .classTitleText{text-anchor:middle;font-size:18px;fill:#333;}#my-svg .label-icon{display:inline-block;height:1em;overflow:visible;vertical-align:-0.125em;}#my-svg .node .label-icon path{fill:currentColor;stroke:revert;stroke-width:revert;}#my-svg :root{--mermaid-font-family:"trebuchet ms",verdana,arial,sans-serif;}</style><g><defs><marker id="my-svg_class-aggregationStart" class="marker aggregation class" refX="18" refY="7" markerWidth="190" markerHeight="240" orient="auto"><path d="M 18,7 L9,13 L1,7 L9,1 Z"/></marker></defs><defs><marker id="my-svg_class-aggregationEnd" class="marker aggregation class" refX="1" refY="7" markerWidth="20" markerHeight="28" orient="auto"><path d="M 18,7 L9,13 L1,7 L9,1 Z"/></marker></defs><defs><marker id="my-svg_class-extensionStart" class="marker extension class" refX="18" refY="7" markerWidth="190" markerHeight="240" orient="auto"><path d="M 1,7 L18,13 V 1 Z"/></marker></defs><defs><marker id="my-svg_class-extensionEnd" class="marker extension class" refX="1" refY="7" markerWidth="20" markerHeight="28" orient="auto"><path d="M 1,1 V 13 L18,7 Z"/></marker></defs><defs><marker id="my-svg_class-compositionStart" class="marker composition class" refX="18" refY="7" markerWidth="190" markerHeight="240" orient="auto"><path d="M 18,7 L9,13 L1,7 L9,1 Z"/></marker></defs><defs><marker id="my-svg_class-compositionEnd" class="marker composition class" refX="1" refY="7" markerWidth="20" markerHeight="28" orient="auto"><path d="M 18,7 L9,13 L1,7 L9,1 Z"/></marker></defs><defs><marker id="my-svg_class-dependencyStart" class="marker dependency class" refX="6" refY="7" markerWidth="190" markerHeight="240" orient="auto"><path d="M 5,7 L9,13 L1,7 L9,1 Z"/></marker></defs><defs><marker id="my-svg_class-dependencyEnd" class="marker dependency class" refX="13" refY="7" markerWidth="20" markerHeight="28" orient="auto"><path d="M 18,7 L9,13 L14,7 L9,1 Z"/></marker></defs><defs><marker id="my-svg_class-lollipopStart" class="marker lollipop class" refX="13" refY="7" markerWidth="190" markerHeight="240" orient="auto"><circle fill="transparent" cx="7" cy="7" r="6"/></marker></defs><defs><marker id="my-svg_class-lollipopEnd" class="marker lollipop class" refX="1" refY="7" markerWidth="190" markerHeight="240" orient="auto"><circle fill="transparent" cx="7" cy="7" r="6"/></marker></defs><g class="root"><g class="clusters"/><g class="edgePaths"><path d="M96.406,176L96.406,182.167C96.406,188.333,96.406,200.667,96.406,212C96.406,223.333,96.406,233.667,96.406,238.833L96.406,244" id="id_Course_Assignment_1" class="edge-thickness-normal edge-pattern-solid relation" style=";;;" data-edge="true" data-et="edge" data-id="id_Course_Assignment_1" data-points="W3sieCI6OTYuNDA2MjUsInkiOjE3Nn0seyJ4Ijo5Ni40MDYyNSwieSI6MjEzfSx7IngiOjk2LjQwNjI1LCJ5IjoyNTB9XQ==" marker-end="url(#my-svg_class-dependencyEnd)"/></g><g class="edgeLabels"><g class="edgeLabel" transform="translate(96.40625, 213)"><g class="label" data-id="id_Course_Assignment_1" transform="translate(-29.890625, -12)"><foreignObject width="59.78125" height="24"><div xmlns="http://www.w3.org/1999/xhtml" class="labelBkg" style="display: table-cell; white-space: nowrap; line-height: 1.5; max-width: 200px; text-align: center;"><span class="edgeLabel"><p>contains</p></span></div></foreignObject></g></g><g class="edgeTerminals" transform="translate(81.40625, 193.5)"><g class="inner" transform="translate(-2.890625, -8.25)"><foreignObject width="5.78125" height="16.5" style="width: 9px; height: 12px;"><div xmlns="http://www.w3.org/1999/xhtml" style="display: table-cell; white-space: nowrap; line-height: 1.5;"><span class="edgeLabel"><p>1</p></span></div></foreignObject></g></g><g class="edgeTerminals" transform="translate(106.40625, 227.5)"><g class="inner" transform="translate(-2.0234375, -8.25)"/><foreignObject width="4.046875" height="16.5" style="width: 9px; height: 12px;"><div xmlns="http://www.w3.org/1999/xhtml" style="display: table-cell; white-space: nowrap; line-height: 1.5;"><span class="edgeLabel"><p>*</p></span></div></foreignObject></g></g><g class="nodes"><g class="node default" id="classId-Course-0" transform="translate(96.40625, 92)"><g class="basic label-container"><path d="M-88.40625 -84 L88.40625 -84 L88.40625 84 L-88.40625 84" stroke="none" stroke-width="0" fill="#ECECFF" style=""/><path d="M-88.40625 -84 C-45.92604917930087 -84, -3.4458483586017365 -84, 88.40625 -84 M-88.40625 -84 C-50.40180810083374 -84, -12.39736620166748 -84, 88.40625 -84 M88.40625 -84 C88.40625 -19.344370660689606, 88.40625 45.31125867862079, 88.40625 84 M88.40625 -84 C88.40625 -18.595582146985947, 88.40625 46.808835706028106, 88.40625 84 M88.40625 84 C50.26694332502322 84, 12.12763665004644 84, -88.40625 84 M88.40625 84 C19.09104079203037 84, -50.22416841593926 84, -88.40625 84 M-88.40625 84 C-88.40625 28.718833745848563, -88.40625 -26.562332508302873, -88.40625 -84 M-88.40625 84 C-88.40625 25.54672013351933, -88.40625 -32.90655973296134, -88.40625 -84" stroke="#9370DB" stroke-width="1.3" fill="none" stroke-dasharray="0 0" style=""/></g><g class="annotation-group text" transform="translate(0, -60)"/><g class="label-group text" transform="translate(-25.609375, -60)"><g class="label" style="font-weight: bolder" transform="translate(0,-12)"><foreignObject width="51.21875" height="24"><div xmlns="http://www.w3.org/1999/xhtml" style="display: table-cell; white-space: nowrap; line-height: 1.5; max-width: 95px; text-align: center;"><span class="nodeLabel markdown-node-label" style=""><p>Course</p></span></div></foreignObject></g></g><g class="members-group text" transform="translate(-76.40625, -12)"><g class="label" style="" transform="translate(0,-12)"><foreignObject width="88.953125" height="24"><div xmlns="http://www.w3.org/1999/xhtml" style="display: table-cell; white-space: nowrap; line-height: 1.5; max-width: 138px; text-align: center;"><span class="nodeLabel markdown-node-label" style=""><p>+String code</p></span></div></foreignObject></g><g class="label" style="" transform="translate(0,12)"><foreignObject width="85.5" height="24"><div xmlns="http://www.w3.org/1999/xhtml" style="display: table-cell; white-space: nowrap; line-height: 1.5; max-width: 132px; text-align: center;"><span class="nodeLabel markdown-node-label" style=""><p>+String title</p></span></div></foreignObject></g></g><g class="methods-group text" transform="translate(-76.40625, 60)"><g class="label" style="" transform="translate(0,-12)"><foreignObject width="127.203125" height="24"><div xmlns="http://www.w3.org/1999/xhtml" style="display: table-cell; white-space: nowrap; line-height: 1.5; max-width: 175px; text-align: center;"><span class="nodeLabel markdown-node-label" style=""><p>+addAssignment()</p></span></div></foreignObject></g></g><g class="divider" style=""><path d="M-88.40625 -36 C-51.97401733836039 -36, -15.54178467672078 -36, 88.40625 -36 M-88.40625 -36 C-31.281720541311472 -36, 25.842808917377056 -36, 88.40625 -36" stroke="#9370DB" stroke-width="1.3" fill="none" stroke-dasharray="0 0" style=""/></g><g class="divider" style=""><path d="M-88.40625 36 C-40.12934292462632 36, 8.147564150747357 36, 88.40625 36 M-88.40625 36 C-38.18564306217571 36, 12.034963875648586 36, 88.40625 36" stroke="#9370DB" stroke-width="1.3" fill="none" stroke-dasharray="0 0" style=""/></g></g><g class="node default" id="classId-Assignment-1" transform="translate(96.40625, 334)"><g class="basic label-container"><path d="M-86.3125 -84 L86.3125 -84 L86.3125 84 L-86.3125 84" stroke="none" stroke-width="0" fill="#ECECFF" style=""/><path d="M-86.3125 -84 C-39.09715902401642 -84, 8.11818195196716 -84, 86.3125 -84 M-86.3125 -84 C-35.48229166396163 -84, 15.347916672076735 -84, 86.3125 -84 M86.3125 -84 C86.3125 -35.72571350631208, 86.3125 12.548572987375834, 86.3125 84 M86.3125 -84 C86.3125 -47.41604838198432, 86.3125 -10.832096763968636, 86.3125 84 M86.3125 84 C31.030846945104436 84, -24.250806109791128 84, -86.3125 84 M86.3125 84 C38.692043843396014 84, -8.928412313207971 84, -86.3125 84 M-86.3125 84 C-86.3125 48.96675279889501, -86.3125 13.933505597790017, -86.3125 -84 M-86.3125 84 C-86.3125 42.17674580553109, -86.3125 0.3534916110621822, -86.3125 -84" stroke="#9370DB" stroke-width="1.3" fill="none" stroke-dasharray="0 0" style=""/></g><g class="annotation-group text" transform="translate(0, -60)"/><g class="label-group text" transform="translate(-42.453125, -60)"><g class="label" style="font-weight: bolder" transform="translate(0,-12)"><foreignObject width="84.90625" height="24"><div xmlns="http://www.w3.org/1999/xhtml" style="display: table-cell; white-space: nowrap; line-height: 1.5; max-width: 128px; text-align: center;"><span class="nodeLabel markdown-node-label" style=""><p>Assignment</p></span></div></foreignObject></g></g><g class="members-group text" transform="translate(-74.3125, -12)"><g class="label" style="" transform="translate(0,-12)"><foreignObject width="93.96875" height="24"><div xmlns="http://www.w3.org/1999/xhtml" style="display: table-cell; white-space: nowrap; line-height: 1.5; max-width: 142px; text-align: center;"><span class="nodeLabel markdown-node-label" style=""><p>+String name</p></span></div></foreignObject></g><g class="label" style="" transform="translate(0,12)"><foreignObject width="106.171875" height="24"><div xmlns="http://www.w3.org/1999/xhtml" style="display: table-cell; white-space: nowrap; line-height: 1.5; max-width: 152px; text-align: center;"><span class="nodeLabel markdown-node-label" style=""><p>+Date dueDate</p></span></div></foreignObject></g></g><g class="methods-group text" transform="translate(-74.3125, 60)"><g class="label" style="" transform="translate(0,-12)"><foreignObject width="68.46875" height="24"><div xmlns="http://www.w3.org/1999/xhtml" style="display: table-cell; white-space: nowrap; line-height: 1.5; max-width: 119px; text-align: center;"><span class="nodeLabel markdown-node-label" style=""><p>+submit()</p></span></div></foreignObject></g></g><g class="divider" style=""><path d="M-86.3125 -36 C-32.321209433518504 -36, 21.67008113296299 -36, 86.3125 -36 M-86.3125 -36 C-23.18670224193024 -36, 39.93909551613952 -36, 86.3125 -36" stroke="#9370DB" stroke-width="1.3" fill="none" stroke-dasharray="0 0" style=""/></g><g class="divider" style=""><path d="M-86.3125 36 C-49.51049044335717 36, -12.70848088671434 36, 86.3125 36 M-86.3125 36 C-47.94157689823878 36, -9.570653796477558 36, 86.3125 36" stroke="#9370DB" stroke-width="1.3" fill="none" stroke-dasharray="0 0" style=""/></g></g></g></g></g></svg>