<svg id="my-svg" width="100%" xmlns="http://www.w3.org/2000/svg" xmlns:xlink="http://www.w3.org/1999/xlink" class="erDiagram" style="max-width: 481.453px; background-color: white;" viewBox="0 0 481.453125 416.25" role="graphics-document document" aria-roledescription="er"><style>#my-svg{font-family:"trebuchet ms",verdana,arial,sans-serif;font-size:16px;fill:#333;}@keyframes edge-animation-frame{from{stroke-dashoffset:0;}}@keyframes dash{to{stroke-dashoffset:0;}}#my-svg .edge-animation-slow{stroke-dasharray:9,5!important;stroke-dashoffset:900;animation:dash 50s linear infinite;stroke-linecap:round;}#my-svg .edge-animation-fast{stroke-dasharray:9,5!important;stroke-dashoffset:900;animation:dash 20s linear infinite;stroke-linecap:round;}#my-svg .error-icon{fill:#552222;}#my-svg .error-text{fill:#552222;stroke:#552222;}#my-svg .edge-thickness-normal{stroke-width:1px;}#my-svg .edge-thickness-thick{stroke-width:3.5px;}#my-svg .edge-pattern-solid{stroke-dasharray:0;}#my-svg .edge-thickness-invisible{stroke-width:0;fill:none;}#my-svg .edge-pattern-dashed{stroke-dasharray:3;}#my-svg .edge-pattern-dotted{stroke-dasharray:2;}#my-svg .marker{fill:#333333;stroke:#333333;}#my-svg .marker.cross{stroke:#333333;}#my-svg svg{font-family:"trebuchet ms",verdana,arial,sans-serif;font-size:16px;}#my-svg p{margin:0;}#my-svg .entityBox{fill:#ECECFF;stroke:#9370DB;}#my-svg .relationshipLabelBox{fill:hsl(80, 100%, 96.2745098039%);opacity:0.7;background-color:hsl(80, 100%, 96.2745098039%);}#my-svg .relationshipLabelBox rect{opacity:0.5;}#my-svg .labelBkg{background-color:rgba(248.6666666666, 255, 235.9999999999, 0.5);}#my-svg .edgeLabel .label{fill:#9370DB;font-size:14px;}#my-svg .label{font-family:"trebuchet ms",verdana,arial,sans-serif;color:#333;}#my-svg .edge-pattern-dashed{stroke-dasharray:8,8;}#my-svg .node rect,#my-svg .node circle,#my-svg .node ellipse,#my-svg .node polygon{fill:#ECECFF;stroke:#9370DB;stroke-width:1px;}#my-svg .relationshipLine{stroke:#333333;stroke-width:1;fill:none;}#my-svg .marker{fill:none!important;stroke:#333333!important;stroke-width:1;}#my-svg .edgeLabel{background-color:rgba(232,232,232, 0.8);}#my-svg .edgeLabel .label rect{fill:rgba(232,232,232, 0.8);}#my-svg .edgeLabel .label text{fill:#333;}#my-svg :root{--mermaid-font-family:"trebuchet ms",verdana,arial,sans-serif;}</style><g><defs><marker id="my-svg_er-onlyOneStart" class="marker onlyOne er" refX="0" refY="9" markerWidth="18" markerHeight="18" orient="auto"><path d="M9,0 L9,18 M15,0 L15,18"/></marker></defs><defs><marker id="my-svg_er-onlyOneEnd" class="marker onlyOne er" refX="18" refY="9" markerWidth="18" markerHeight="18" orient="auto"><path d="M3,0 L3,18 M9,0 L9,18"/></marker></defs><defs><marker id="my-svg_er-zeroOrOneStart" class="marker zeroOrOne er" refX="0" refY="9" markerWidth="30" markerHeight="18" orient="auto"><circle fill="white" cx="21" cy="9" r="6"/><path d="M9,0 L9,18"/></marker></defs><defs><marker id="my-svg_er-zeroOrOneEnd" class="marker zeroOrOne er" refX="30" refY="9" markerWidth="30" markerHeight="18" orient="auto"><circle fill="white" cx="9" cy="9" r="6"/><path d="M21,0 L21,18"/></marker></defs><defs><marker id="my-svg_er-oneOrMoreStart" class="marker oneOrMore er" refX="18" refY="18" markerWidth="45" markerHeight="36" orient="auto"><path d="M0,18 Q 18,0 36,18 Q 18,36 0,18 M42,9 L42,27"/></marker></defs><defs><marker id="my-svg_er-oneOrMoreEnd" class="marker oneOrMore er" refX="27" refY="18" markerWidth="45" markerHeight="36" orient="auto"><path d="M3,9 L3,27 M9,18 Q27,0 45,18 Q27,36 9,18"/></marker></defs><defs><marker id="my-svg_er-zeroOrMoreStart" class="marker zeroOrMore er" refX="18" refY="18" markerWidth="57" markerHeight="36" orient="auto"><circle fill="white" cx="48" cy="18" r="6"/><path d="M0,18 Q18,0 36,18 Q18,36 0,18"/></marker></defs><defs><marker id="my-svg_er-zeroOrMoreEnd" class="marker zeroOrMore er" refX="39" refY="18" markerWidth="57" markerHeight="36" orient="auto"><circle fill="white" cx="9" cy="18" r="6"/><path d="M21,18 Q39,0 57,18 Q39,36 21,18"/></marker></defs><g class="root"><g class="clusters"/><g class="edgePaths"><path d="M91.266,136.25L91.266,144.667C91.266,153.083,91.266,169.917,102.615,188.531C113.965,207.145,136.664,227.541,148.014,237.738L159.363,247.936" id="id_entity-STUDENT-0_entity-ENROLLMENT-1_0" class="edge-thickness-normal edge-pattern-solid relationshipLine" style="undefined;;;undefined" data-edge="true" data-et="edge" data-id="id_entity-STUDENT-0_entity-ENROLLMENT-1_0" data-points="W3sieCI6OTEuMjY1NjI1LCJ5IjoxMzYuMjV9LHsieCI6OTEuMjY1NjI1LCJ5IjoxODYuNzV9LHsieCI6MTU5LjM2MzI4MTI1LCJ5IjoyNDcuOTM1Nzg1NDM5NjI0MjV9XQ==" marker-start="url(#my-svg_er-onlyOneStart)" marker-end="url(#my-svg_er-zeroOrMoreEnd)"/><path d="M393.992,136.25L393.992,144.667C393.992,153.083,393.992,169.917,382.643,188.531C371.293,207.145,348.594,227.541,337.244,237.738L325.895,247.936" id="id_entity-COURSE-2_entity-ENROLLMENT-1_1" class="edge-thickness-normal edge-pattern-solid relationshipLine" style="undefined;;;undefined" data-edge="true" data-et="edge" data-id="id_entity-COURSE-2_entity-ENROLLMENT-1_1" data-points="W3sieCI6MzkzLjk5MjE4NzUsInkiOjEzNi4yNX0seyJ4IjozOTMuOTkyMTg3NSwieSI6MTg2Ljc1fSx7IngiOjMyNS44OTQ1MzEyNSwieSI6MjQ3LjkzNTc4NTQzOTYyNDI1fV0=" marker-start="url(#my-svg_er-onlyOneStart)" marker-end="url(#my-svg_er-zeroOrMoreEnd)"/></g><g class="edgeLabels"><g class="edgeLabel" transform="translate(91.265625, 186.75)"><g class="label" data-id="id_entity-STUDENT-0_entity-ENROLLMENT-1_0" transform="translate(-10.3359375, -10.5)"><foreignObject width="20.671875" height="21"><div xmlns="http://www.w3.org/1999/xhtml" class="labelBkg" style="display: table-cell; white-space: nowrap; line-height: 1.5; max-width: 200px; text-align: center;"><span class="edgeLabel"><p>has</p></span></div></foreignObject></g></g><g class="edgeLabel" transform="translate(393.9921875, 186.75)"><g class="label" data-id="id_entity-COURSE-2_entity-ENROLLMENT-1_1" transform="translate(-25.734375, -10.5)"><foreignObject width="51.46875" height="21"><div xmlns="http://www.w3.org/1999/xhtml" class="labelBkg" style="display: table-cell; white-space: nowrap; line-height: 1.5; max-width: 200px; text-align: center;"><span class="edgeLabel"><p>includes</p></span></div></foreignObject></g></g></g><g class="nodes"><g class="node default" id="entity-STUDENT-0" transform="translate(91.265625, 72.125)"><g style=""><path d="M-83.265625 -64.125 L83.265625 -64.125 L83.265625 64.125 L-83.265625 64.125" stroke="none" stroke-width="0" fill="#ECECFF"/><path d="M-83.265625 -64.125 C-42.56701446468445 -64.125, -1.8684039293688954 -64.125, 83.265625 -64.125 M-83.265625 -64.125 C-23.26266675113591 -64.125, 36.74029149772818 -64.125, 83.265625 -64.125 M83.265625 -64.125 C83.265625 -20.724605952056173, 83.265625 22.675788095887654, 83.265625 64.125 M83.265625 -64.125 C83.265625 -21.391033025301212, 83.265625 21.342933949397576, 83.265625 64.125 M83.265625 64.125 C48.36392386354731 64.125, 13.462222727094627 64.125, -83.265625 64.125 M83.265625 64.125 C36.014136353281 64.125, -11.237352293437993 64.125, -83.265625 64.125 M-83.265625 64.125 C-83.265625 17.263256137219862, -83.265625 -29.598487725560275, -83.265625 -64.125 M-83.265625 64.125 C-83.265625 21.384768809325692, -83.265625 -21.355462381348616, -83.265625 -64.125" stroke="#9370DB" stroke-width="1.3" fill="none" stroke-dasharray="0 0"/></g><g style="" class="row-rect-odd"><path d="M-83.265625 -21.375 L83.265625 -21.375 L83.265625 21.375 L-83.265625 21.375" stroke="none" stroke-width="0" fill="hsl(240, 100%, 100%)"/><path d="M-83.265625 -21.375 C-35.69690727275695 -21.375, 11.871810454486095 -21.375, 83.265625 -21.375 M-83.265625 -21.375 C-29.754890952889454 -21.375, 23.755843094221092 -21.375, 83.265625 -21.375 M83.265625 -21.375 C83.265625 -11.784263894468147, 83.265625 -2.1935277889362936, 83.265625 21.375 M83.265625 -21.375 C83.265625 -7.083380334222316, 83.265625 7.208239331555369, 83.265625 21.375 M83.265625 21.375 C41.44720513337412 21.375, -0.3712147332517617 21.375, -83.265625 21.375 M83.265625 21.375 C44.03439701159389 21.375, 4.8031690231877775 21.375, -83.265625 21.375 M-83.265625 21.375 C-83.265625 9.09790471093163, -83.265625 -3.1791905781367404, -83.265625 -21.375 M-83.265625 21.375 C-83.265625 4.557650780841197, -83.265625 -12.259698438317606, -83.265625 -21.375" stroke="#9370DB" stroke-width="1.3" fill="none" stroke-dasharray="0 0"/></g><g style="" class="row-rect-even"><path d="M-83.265625 21.375 L83.265625 21.375 L83.265625 64.125 L-83.265625 64.125" stroke="none" stroke-width="0" fill="hsl(240, 100%, 97.2745098039%)"/><path d="M-83.265625 21.375 C-47.11189530336078 21.375, -10.958165606721565 21.375, 83.265625 21.375 M-83.265625 21.375 C-34.46338767714493 21.375, 14.338849645710141 21.375, 83.265625 21.375 M83.265625 21.375 C83.265625 30.971736433179835, 83.265625 40.56847286635967, 83.265625 64.125 M83.265625 21.375 C83.265625 37.49320808523929, 83.265625 53.61141617047857, 83.265625 64.125 M83.265625 64.125 C37.96904917526708 64.125, -7.327526649465838 64.125, -83.265625 64.125 M83.265625 64.125 C37.350533497190206 64.125, -8.564558005619588 64.125, -83.265625 64.125 M-83.265625 64.125 C-83.265625 50.348216863252205, -83.265625 36.57143372650441, -83.265625 21.375 M-83.265625 64.125 C-83.265625 47.659693559362275, -83.265625 31.19438711872455, -83.265625 21.375" stroke="#9370DB" stroke-width="1.3" fill="none" stroke-dasharray="0 0"/></g><g class="label name" transform="translate(-32.625, -54.75)" style=""><foreignObject width="65.25" height="24"><div xmlns="http://www.w3.org/1999/xhtml" style="display: table-cell; white-space: nowrap; line-height: 1.5; max-width: 173px; text-align: start;"><span class="nodeLabel"><p>STUDENT</p></span></div></foreignObject></g><g class="label attribute-type" transform="translate(-70.765625, -12)" style=""><foreignObject width="40.375" height="24"><div xmlns="http://www.w3.org/1999/xhtml" style="display: table-cell; white-space: nowrap; line-height: 1.5; max-width: 136px; text-align: start;"><span class="nodeLabel"><p>string</p></span></div></foreignObject></g><g class="label attribute-name" transform="translate(-5.390625, -12)" style=""><foreignObject width="76.15625" height="24"><div xmlns="http://www.w3.org/1999/xhtml" style="display: table-cell; white-space: nowrap; line-height: 1.5; max-width: 168px; text-align: start;"><span class="nodeLabel"><p>student_id</p></span></div></foreignObject></g><g class="label attribute-keys" transform="translate(95.765625, -12)" style=""><foreignObject width="0" height="0"><div xmlns="http://www.w3.org/1999/xhtml" style="display: table-cell; white-space: nowrap; line-height: 1.5; max-width: 100px; text-align: start;"><span class="nodeLabel"></span></div></foreignObject></g><g class="label attribute-comment" transform="translate(95.765625, -12)" style=""><foreignObject width="0" height="0"><div xmlns="http://www.w3.org/1999/xhtml" style="display: table-cell; white-space: nowrap; line-height: 1.5; max-width: 100px; text-align: start;"><span class="nodeLabel"></span></div></foreignObject></g><g class="label attribute-type" transform="translate(-70.765625, 30.75)" style=""><foreignObject width="40.375" height="24"><div xmlns="http://www.w3.org/1999/xhtml" style="display: table-cell; white-space: nowrap; line-height: 1.5; max-width: 136px; text-align: start;"><span class="nodeLabel"><p>string</p></span></div></foreignObject></g><g class="label attribute-name" transform="translate(-5.390625, 30.75)" style=""><foreignObject width="39.15625" height="24"><div xmlns="http://www.w3.org/1999/xhtml" style="display: table-cell; white-space: nowrap; line-height: 1.5; max-width: 136px; text-align: start;"><span class="nodeLabel"><p>name</p></span></div></foreignObject></g><g class="label attribute-keys" transform="translate(95.765625, 30.75)" style=""><foreignObject width="0" height="0"><div xmlns="http://www.w3.org/1999/xhtml" style="display: table-cell; white-space: nowrap; line-height: 1.5; max-width: 100px; text-align: start;"><span class="nodeLabel"></span></div></foreignObject></g><g class="label attribute-comment" transform="translate(95.765625, 30.75)" style=""><foreignObject width="0" height="0"><div xmlns="http://www.w3.org/1999/xhtml" style="display: table-cell; white-space: nowrap; line-height: 1.5; max-width: 100px; text-align: start;"><span class="nodeLabel"></span></div></foreignObject></g><g class="divider"><path d="M-83.265625 -21.375 C-26.744755540499497 -21.375, 29.776113919001006 -21.375, 83.265625 -21.375 M-83.265625 -21.375 C-47.13286467744817 -21.375, -11.000104354896337 -21.375, 83.265625 -21.375" stroke="#9370DB" stroke-width="1.3" fill="none" stroke-dasharray="0 0"/></g><g class="divider"><path d="M-17.890625 -21.375 C-17.890625 11.055775712043072, -17.890625 43.486551424086144, -17.890625 64.125 M-17.890625 -21.375 C-17.890625 -3.7068030645395034, -17.890625 13.961393870920993, -17.890625 64.125" stroke="#9370DB" stroke-width="1.3" fill="none" stroke-dasharray="0 0"/></g><g class="divider"><path d="M-83.265625 -21.375 C-40.103523457656216 -21.375, 3.058578084687568 -21.375, 83.265625 -21.375 M-83.265625 -21.375 C-26.575267737777693 -21.375, 30.115089524444613 -21.375, 83.265625 -21.375" stroke="#9370DB" stroke-width="1.3" fill="none" stroke-dasharray="0 0"/></g></g><g class="node default" id="entity-ENROLLMENT-1" transform="translate(242.62890625, 322.75)"><g style=""><path d="M-83.265625 -85.5 L83.265625 -85.5 L83.265625 85.5 L-83.265625 85.5" stroke="none" stroke-width="0" fill="#ECECFF"/><path d="M-83.265625 -85.5 C-21.0936725748925 -85.5, 41.078279850215 -85.5, 83.265625 -85.5 M-83.265625 -85.5 C-25.40099135722417 -85.5, 32.46364228555166 -85.5, 83.265625 -85.5 M83.265625 -85.5 C83.265625 -50.2180326069834, 83.265625 -14.936065213966799, 83.265625 85.5 M83.265625 -85.5 C83.265625 -34.42723239020007, 83.265625 16.645535219599864, 83.265625 85.5 M83.265625 85.5 C28.64749011667454 85.5, -25.97064476665092 85.5, -83.265625 85.5 M83.265625 85.5 C44.10650270732162 85.5, 4.947380414643234 85.5, -83.265625 85.5 M-83.265625 85.5 C-83.265625 30.86545223539982, -83.265625 -23.769095529200357, -83.265625 -85.5 M-83.265625 85.5 C-83.265625 29.658195804853293, -83.265625 -26.183608390293415, -83.265625 -85.5" stroke="#9370DB" stroke-width="1.3" fill="none" stroke-dasharray="0 0"/></g><g style="" class="row-rect-odd"><path d="M-83.265625 -42.75 L83.265625 -42.75 L83.265625 0 L-83.265625 0" stroke="none" stroke-width="0" fill="hsl(240, 100%, 100%)"/><path d="M-83.265625 -42.75 C-49.5840903833784 -42.75, -15.902555766756805 -42.75, 83.265625 -42.75 M-83.265625 -42.75 C-37.981946399214664 -42.75, 7.3017322015706725 -42.75, 83.265625 -42.75 M83.265625 -42.75 C83.265625 -32.048754769079416, 83.265625 -21.347509538158835, 83.265625 0 M83.265625 -42.75 C83.265625 -31.54635281363037, 83.265625 -20.342705627260738, 83.265625 0 M83.265625 0 C44.66364528733463 0, 6.061665574669263 0, -83.265625 0 M83.265625 0 C41.27809577576098 0, -0.7094334484780376 0, -83.265625 0 M-83.265625 0 C-83.265625 -14.453242201982224, -83.265625 -28.90648440396445, -83.265625 -42.75 M-83.265625 0 C-83.265625 -13.050841247519179, -83.265625 -26.101682495038357, -83.265625 -42.75" stroke="#9370DB" stroke-width="1.3" fill="none" stroke-dasharray="0 0"/></g><g style="" class="row-rect-even"><path d="M-83.265625 0 L83.265625 0 L83.265625 42.75 L-83.265625 42.75" stroke="none" stroke-width="0" fill="hsl(240, 100%, 97.2745098039%)"/><path d="M-83.265625 0 C-27.32762096313042 0, 28.610383073739158 0, 83.265625 0 M-83.265625 0 C-22.4329557674697 0, 38.3997134650606 0, 83.265625 0 M83.265625 0 C83.265625 14.023073898636385, 83.265625 28.04614779727277, 83.265625 42.75 M83.265625 0 C83.265625 10.748777562434872, 83.265625 21.497555124869745, 83.265625 42.75 M83.265625 42.75 C27.624192559112522 42.75, -28.017239881774955 42.75, -83.265625 42.75 M83.265625 42.75 C47.74682016221421 42.75, 12.228015324428426 42.75, -83.265625 42.75 M-83.265625 42.75 C-83.265625 31.32616206316453, -83.265625 19.902324126329063, -83.265625 0 M-83.265625 42.75 C-83.265625 32.86367770288163, -83.265625 22.977355405763262, -83.265625 0" stroke="#9370DB" stroke-width="1.3" fill="none" stroke-dasharray="0 0"/></g><g style="" class="row-rect-odd"><path d="M-83.265625 42.75 L83.265625 42.75 L83.265625 85.5 L-83.265625 85.5" stroke="none" stroke-width="0" fill="hsl(240, 100%, 100%)"/><path d="M-83.265625 42.75 C-46.05463286168718 42.75, -8.843640723374364 42.75, 83.265625 42.75 M-83.265625 42.75 C-33.51783960404337 42.75, 16.229945791913266 42.75, 83.265625 42.75 M83.265625 42.75 C83.265625 51.39123993994585, 83.265625 60.032479879891696, 83.265625 85.5 M83.265625 42.75 C83.265625 55.961773133615075, 83.265625 69.17354626723015, 83.265625 85.5 M83.265625 85.5 C31.60286021016885 85.5, -20.0599045796623 85.5, -83.265625 85.5 M83.265625 85.5 C27.73820373291551 85.5, -27.789217534168984 85.5, -83.265625 85.5 M-83.265625 85.5 C-83.265625 74.72422503733878, -83.265625 63.94845007467755, -83.265625 42.75 M-83.265625 85.5 C-83.265625 76.62265501498399, -83.265625 67.745310029968, -83.265625 42.75" stroke="#9370DB" stroke-width="1.3" fill="none" stroke-dasharray="0 0"/></g><g class="label name" transform="translate(-47.25, -76.125)" style=""><foreignObject width="94.5" height="24"><div xmlns="http://www.w3.org/1999/xhtml" style="display: table-cell; white-space: nowrap; line-height: 1.5; max-width: 210px; text-align: start;"><span class="nodeLabel"><p>ENROLLMENT</p></span></div></foreignObject></g><g class="label attribute-type" transform="translate(-70.765625, -33.375)" style=""><foreignObject width="40.375" height="24"><div xmlns="http://www.w3.org/1999/xhtml" style="display: table-cell; white-space: nowrap; line-height: 1.5; max-width: 136px; text-align: start;"><span class="nodeLabel"><p>string</p></span></div></foreignObject></g><g class="label attribute-name" transform="translate(-5.390625, -33.375)" style=""><foreignObject width="76.15625" height="24"><div xmlns="http://www.w3.org/1999/xhtml" style="display: table-cell; white-space: nowrap; line-height: 1.5; max-width: 168px; text-align: start;"><span class="nodeLabel"><p>student_id</p></span></div></foreignObject></g><g class="label attribute-keys" transform="translate(95.765625, -33.375)" style=""><foreignObject width="0" height="0"><div xmlns="http://www.w3.org/1999/xhtml" style="display: table-cell; white-space: nowrap; line-height: 1.5; max-width: 100px; text-align: start;"><span class="nodeLabel"></span></div></foreignObject></g><g class="label attribute-comment" transform="translate(95.765625, -33.375)" style=""><foreignObject width="0" height="0"><div xmlns="http://www.w3.org/1999/xhtml" style="display: table-cell; white-space: nowrap; line-height: 1.5; max-width: 100px; text-align: start;"><span class="nodeLabel"></span></div></foreignObject></g><g class="label attribute-type" transform="translate(-70.765625, 9.375)" style=""><foreignObject width="40.375" height="24"><div xmlns="http://www.w3.org/1999/xhtml" style="display: table-cell; white-space: nowrap; line-height: 1.5; max-width: 136px; text-align: start;"><span class="nodeLabel"><p>string</p></span></div></foreignObject></g><g class="label attribute-name" transform="translate(-5.390625, 9.375)" style=""><foreignObject width="68.546875" height="24"><div xmlns="http://www.w3.org/1999/xhtml" style="display: table-cell; white-space: nowrap; line-height: 1.5; max-width: 163px; text-align: start;"><span class="nodeLabel"><p>course_id</p></span></div></foreignObject></g><g class="label attribute-keys" transform="translate(95.765625, 9.375)" style=""><foreignObject width="0" height="0"><div xmlns="http://www.w3.org/1999/xhtml" style="display: table-cell; white-space: nowrap; line-height: 1.5; max-width: 100px; text-align: start;"><span class="nodeLabel"></span></div></foreignObject></g><g class="label attribute-comment" transform="translate(95.765625, 9.375)" style=""><foreignObject width="0" height="0"><div xmlns="http://www.w3.org/1999/xhtml" style="display: table-cell; white-space: nowrap; line-height: 1.5; max-width: 100px; text-align: start;"><span class="nodeLabel"></span></div></foreignObject></g><g class="label attribute-type" transform="translate(-70.765625, 52.125)" style=""><foreignObject width="40.375" height="24"><div xmlns="http://www.w3.org/1999/xhtml" style="display: table-cell; white-space: nowrap; line-height: 1.5; max-width: 136px; text-align: start;"><span class="nodeLabel"><p>string</p></span></div></foreignObject></g><g class="label attribute-name" transform="translate(-5.390625, 52.125)" style=""><foreignObject width="34.578125" height="24"><div xmlns="http://www.w3.org/1999/xhtml" style="display: table-cell; white-space: nowrap; line-height: 1.5; max-width: 131px; text-align: start;"><span class="nodeLabel"><p>term</p></span></div></foreignObject></g><g class="label attribute-keys" transform="translate(95.765625, 52.125)" style=""><foreignObject width="0" height="0"><div xmlns="http://www.w3.org/1999/xhtml" style="display: table-cell; white-space: nowrap; line-height: 1.5; max-width: 100px; text-align: start;"><span class="nodeLabel"></span></div></foreignObject></g><g class="label attribute-comment" transform="translate(95.765625, 52.125)" style=""><foreignObject width="0" height="0"><div xmlns="http://www.w3.org/1999/xhtml" style="display: table-cell; white-space: nowrap; line-height: 1.5; max-width: 100px; text-align: start;"><span class="nodeLabel"></span></div></foreignObject></g><g class="divider"><path d="M-83.265625 -42.75 C-33.46547729605399 -42.75, 16.33467040789202 -42.75, 83.265625 -42.75 M-83.265625 -42.75 C-32.03567948014896 -42.75, 19.194266039702086 -42.75, 83.265625 -42.75" stroke="#9370DB" stroke-width="1.3" fill="none" stroke-dasharray="0 0"/></g><g class="divider"><path d="M-17.890625 -42.75 C-17.890625 -13.692055446464163, -17.890625 15.365889107071673, -17.890625 85.5 M-17.890625 -42.75 C-17.890625 -5.661677644113247, -17.890625 31.426644711773505, -17.890625 85.5" stroke="#9370DB" stroke-width="1.3" fill="none" stroke-dasharray="0 0"/></g><g class="divider"><path d="M-83.265625 -42.75 C-44.64142564938344 -42.75, -6.017226298766886 -42.75, 83.265625 -42.75 M-83.265625 -42.75 C-28.438705134295 -42.75, 26.388214731410002 -42.75, 83.265625 -42.75" stroke="#9370DB" stroke-width="1.3" fill="none" stroke-dasharray="0 0"/></g></g><g class="node default" id="entity-COURSE-2" transform="translate(393.9921875, 72.125)"><g style=""><path d="M-79.4609375 -64.125 L79.4609375 -64.125 L79.4609375 64.125 L-79.4609375 64.125" stroke="none" stroke-width="0" fill="#ECECFF"/><path d="M-79.4609375 -64.125 C-20.632085718903845 -64.125, 38.19676606219231 -64.125, 79.4609375 -64.125 M-79.4609375 -64.125 C-47.142579176605466 -64.125, -14.824220853210932 -64.125, 79.4609375 -64.125 M79.4609375 -64.125 C79.4609375 -34.79504355511227, 79.4609375 -5.465087110224552, 79.4609375 64.125 M79.4609375 -64.125 C79.4609375 -31.148443953912448, 79.4609375 1.828112092175104, 79.4609375 64.125 M79.4609375 64.125 C41.04957957880766 64.125, 2.6382216576153183 64.125, -79.4609375 64.125 M79.4609375 64.125 C36.710944211843064 64.125, -6.039049076313873 64.125, -79.4609375 64.125 M-79.4609375 64.125 C-79.4609375 35.44890726988845, -79.4609375 6.77281453977691, -79.4609375 -64.125 M-79.4609375 64.125 C-79.4609375 29.623709875282998, -79.4609375 -4.877580249434004, -79.4609375 -64.125" stroke="#9370DB" stroke-width="1.3" fill="none" stroke-dasharray="0 0"/></g><g style="" class="row-rect-odd"><path d="M-79.4609375 -21.375 L79.4609375 -21.375 L79.4609375 21.375 L-79.4609375 21.375" stroke="none" stroke-width="0" fill="hsl(240, 100%, 100%)"/><path d="M-79.4609375 -21.375 C-30.818495608891155 -21.375, 17.82394628221769 -21.375, 79.4609375 -21.375 M-79.4609375 -21.375 C-28.305509169337824 -21.375, 22.84991916132435 -21.375, 79.4609375 -21.375 M79.4609375 -21.375 C79.4609375 -7.458307788818756, 79.4609375 6.458384422362489, 79.4609375 21.375 M79.4609375 -21.375 C79.4609375 -12.112222514822008, 79.4609375 -2.8494450296440164, 79.4609375 21.375 M79.4609375 21.375 C18.21354555748509 21.375, -43.03384638502982 21.375, -79.4609375 21.375 M79.4609375 21.375 C38.02710424536295 21.375, -3.406729009274102 21.375, -79.4609375 21.375 M-79.4609375 21.375 C-79.4609375 12.319771454207757, -79.4609375 3.264542908415514, -79.4609375 -21.375 M-79.4609375 21.375 C-79.4609375 10.161569791892298, -79.4609375 -1.0518604162154048, -79.4609375 -21.375" stroke="#9370DB" stroke-width="1.3" fill="none" stroke-dasharray="0 0"/></g><g style="" class="row-rect-even"><path d="M-79.4609375 21.375 L79.4609375 21.375 L79.4609375 64.125 L-79.4609375 64.125" stroke="none" stroke-width="0" fill="hsl(240, 100%, 97.2745098039%)"/><path d="M-79.4609375 21.375 C-18.0621126893466 21.375, 43.3367121213068 21.375, 79.4609375 21.375 M-79.4609375 21.375 C-23.33727261509563 21.375, 32.78639226980874 21.375, 79.4609375 21.375 M79.4609375 21.375 C79.4609375 37.884643183764894, 79.4609375 54.39428636752979, 79.4609375 64.125 M79.4609375 21.375 C79.4609375 29.957139671846708, 79.4609375 38.539279343693416, 79.4609375 64.125 M79.4609375 64.125 C44.707103207185156 64.125, 9.953268914370312 64.125, -79.4609375 64.125 M79.4609375 64.125 C28.063437797385497 64.125, -23.334061905229007 64.125, -79.4609375 64.125 M-79.4609375 64.125 C-79.4609375 52.43565679447701, -79.4609375 40.74631358895403, -79.4609375 21.375 M-79.4609375 64.125 C-79.4609375 52.75929389509285, -79.4609375 41.3935877901857, -79.4609375 21.375" stroke="#9370DB" stroke-width="1.3" fill="none" stroke-dasharray="0 0"/></g><g class="label name" transform="translate(-28.15625, -54.75)" style=""><foreignObject width="56.3125" height="24"><div xmlns="http://www.w3.org/1999/xhtml" style="display: table-cell; white-space: nowrap; line-height: 1.5; max-width: 163px; text-align: start;"><span class="nodeLabel"><p>COURSE</p></span></div></foreignObject></g><g class="label attribute-type" transform="translate(-66.9609375, -12)" style=""><foreignObject width="40.375" height="24"><div xmlns="http://www.w3.org/1999/xhtml" style="display: table-cell; white-space: nowrap; line-height: 1.5; max-width: 136px; text-align: start;"><span class="nodeLabel"><p>string</p></span></div></foreignObject></g><g class="label attribute-name" transform="translate(-1.5859375, -12)" style=""><foreignObject width="68.546875" height="24"><div xmlns="http://www.w3.org/1999/xhtml" style="display: table-cell; white-space: nowrap; line-height: 1.5; max-width: 163px; text-align: start;"><span class="nodeLabel"><p>course_id</p></span></div></foreignObject></g><g class="label attribute-keys" transform="translate(91.9609375, -12)" style=""><foreignObject width="0" height="0"><div xmlns="http://www.w3.org/1999/xhtml" style="display: table-cell; white-space: nowrap; line-height: 1.5; max-width: 100px; text-align: start;"><span class="nodeLabel"></span></div></foreignObject></g><g class="label attribute-comment" transform="translate(91.9609375, -12)" style=""><foreignObject width="0" height="0"><div xmlns="http://www.w3.org/1999/xhtml" style="display: table-cell; white-space: nowrap; line-height: 1.5; max-width: 100px; text-align: start;"><span class="nodeLabel"></span></div></foreignObject></g><g class="label attribute-type" transform="translate(-66.9609375, 30.75)" style=""><foreignObject width="40.375" height="24"><div xmlns="http://www.w3.org/1999/xhtml" style="display: table-cell; white-space: nowrap; line-height: 1.5; max-width: 136px; text-align: start;"><span class="nodeLabel"><p>string</p></span></div></foreignObject></g><g class="label attribute-name" transform="translate(-1.5859375, 30.75)" style=""><foreignObject width="30.703125" height="24"><div xmlns="http://www.w3.org/1999/xhtml" style="display: table-cell; white-space: nowrap; line-height: 1.5; max-width: 126px; text-align: start;"><span class="nodeLabel"><p>title</p></span></div></foreignObject></g><g class="label attribute-keys" transform="translate(91.9609375, 30.75)" style=""><foreignObject width="0" height="0"><div xmlns="http://www.w3.org/1999/xhtml" style="display: table-cell; white-space: nowrap; line-height: 1.5; max-width: 100px; text-align: start;"><span class="nodeLabel"></span></div></foreignObject></g><g class="label attribute-comment" transform="translate(91.9609375, 30.75)" style=""><foreignObject width="0" height="0"><div xmlns="http://www.w3.org/1999/xhtml" style="display: table-cell; white-space: nowrap; line-height: 1.5; max-width: 100px; text-align: start;"><span class="nodeLabel"></span></div></foreignObject></g><g class="divider"><path d="M-79.4609375 -21.375 C-43.68917757395662 -21.375, -7.91741764791324 -21.375, 79.4609375 -21.375 M-79.4609375 -21.375 C-32.69488677602709 -21.375, 14.07116394794582 -21.375, 79.4609375 -21.375" stroke="#9370DB" stroke-width="1.3" fill="none" stroke-dasharray="0 0"/></g><g class="divider"><path d="M-14.0859375 -21.375 C-14.0859375 -2.5411066966461036, -14.0859375 16.292786606707793, -14.0859375 64.125 M-14.0859375 -21.375 C-14.0859375 4.488960187384045, -14.0859375 30.35292037476809, -14.0859375 64.125" stroke="#9370DB" stroke-width="1.3" fill="none" stroke-dasharray="0 0"/></g><g class="divider"><path d="M-79.4609375 -21.375 C-44.86168512026105 -21.375, -10.262432740522101 -21.375, 79.4609375 -21.375 M-79.4609375 -21.375 C-20.789142093173666 -21.375, 37.88265331365267 -21.375, 79.4609375 -21.375" stroke="#9370DB" stroke-width="1.3" fill="none" stroke-dasharray="0 0"/></g></g></g></g></g></svg>